HIERARCHY
ROOT Bone
{
	OFFSET -0.030867 -4.437881 3.253119
	CHANNELS 6 Xposition Yposition Zposition Yrotation Xrotation Zrotation
	JOINT TailE
	{
		OFFSET 0.000000 0.080156 -1.935160
		CHANNELS 3 Yrotation Xrotation Zrotation
		JOINT TailD
		{
			OFFSET 0.000000 2.358044 0.291682
			CHANNELS 3 Yrotation Xrotation Zrotation
			JOINT TailC
			{
				OFFSET -0.000000 1.333671 1.916938
				CHANNELS 3 Yrotation Xrotation Zrotation
				JOINT TailB
				{
					OFFSET -0.000000 -1.255148 3.134412
					CHANNELS 3 Yrotation Xrotation Zrotation
					JOINT TailA
					{
						OFFSET 0.000000 -2.140733 1.650507
						CHANNELS 3 Yrotation Xrotation Zrotation
						JOINT Sting
						{
							OFFSET 0.000000 -1.968932 -0.918733
							CHANNELS 3 Yrotation Xrotation Zrotation
							End Site
							{
								OFFSET -0.000000 0.251272 -2.461170
							}
						}
					}
				}
			}
		}
	}
	JOINT BodyA
	{
		OFFSET 0.000000 0.080156 -1.935160
		CHANNELS 3 Yrotation Xrotation Zrotation
		JOINT BodyB
		{
			OFFSET -0.170525 -1.291478 -0.222229
			CHANNELS 3 Yrotation Xrotation Zrotation
			JOINT BodyC
			{
				OFFSET 0.007548 -1.372383 0.222229
				CHANNELS 3 Yrotation Xrotation Zrotation
				JOINT BodyD
				{
					OFFSET 0.069461 -1.290529 -0.000000
					CHANNELS 3 Yrotation Xrotation Zrotation
					JOINT Head
					{
						OFFSET -0.010688 -1.207692 -0.000000
						CHANNELS 3 Yrotation Xrotation Zrotation
						End Site
						{
							OFFSET -0.040078 -1.202348 0.000000
						}
					}
					JOINT ClawLA
					{
						OFFSET -0.010688 -1.207692 -0.000000
						CHANNELS 3 Yrotation Xrotation Zrotation
						JOINT ClawLB
						{
							OFFSET 6.819127 -3.131665 -0.000000
							CHANNELS 3 Yrotation Xrotation Zrotation
							JOINT Claw
							{
								OFFSET 2.824883 -3.240305 0.000000
								CHANNELS 3 Yrotation Xrotation Zrotation
								End Site
								{
									OFFSET 2.243288 -2.631018 0.000000
								}
							}
						}
					}
					JOINT ClawRA
					{
						OFFSET -0.010688 -1.207692 -0.000000
						CHANNELS 3 Yrotation Xrotation Zrotation
						JOINT ClawRB
						{
							OFFSET -6.379529 -3.154838 0.000000
							CHANNELS 3 Yrotation Xrotation Zrotation
							JOINT ClawR
							{
								OFFSET -2.858049 -3.223614 0.000000
								CHANNELS 3 Yrotation Xrotation Zrotation
								End Site
								{
									OFFSET -2.326319 -2.824816 0.000000
								}
							}
						}
					}
				}
				JOINT LegL1A
				{
					OFFSET 0.069461 -1.290529 -0.000000
					CHANNELS 3 Yrotation Xrotation Zrotation
					JOINT LegL1B
					{
						OFFSET 3.086028 -0.641253 -0.000000
						CHANNELS 3 Yrotation Xrotation Zrotation
						JOINT LegL1C
						{
							OFFSET 4.709358 -0.277021 -0.000000
							CHANNELS 3 Yrotation Xrotation Zrotation
							JOINT LegL1D
							{
								OFFSET 2.724041 1.939148 -0.000000
								CHANNELS 3 Yrotation Xrotation Zrotation
								JOINT LegL1E
								{
									OFFSET 2.008403 1.708297 0.000000
									CHANNELS 3 Yrotation Xrotation Zrotation
									End Site
									{
										OFFSET 1.269680 -0.438617 0.000000
									}
								}
							}
						}
					}
				}
				JOINT LegR1A
				{
					OFFSET 0.069461 -1.290529 -0.000000
					CHANNELS 3 Yrotation Xrotation Zrotation
					JOINT LegR1B
					{
						OFFSET -3.083751 -0.656827 0.000000
						CHANNELS 3 Yrotation Xrotation Zrotation
						JOINT LegR1C
						{
							OFFSET -4.678308 -0.396769 0.000000
							CHANNELS 3 Yrotation Xrotation Zrotation
							JOINT LegR1D
							{
								OFFSET -2.462370 1.923727 -0.000000
								CHANNELS 3 Yrotation Xrotation Zrotation
								JOINT LegR1E
								{
									OFFSET -2.077625 1.789066 0.000000
									CHANNELS 3 Yrotation Xrotation Zrotation
									End Site
									{
										OFFSET -1.385083 -0.403983 0.000000
									}
								}
							}
						}
					}
				}
			}
			JOINT LegL2A
			{
				OFFSET 0.007548 -1.372383 0.222229
				CHANNELS 3 Yrotation Xrotation Zrotation
				JOINT LegL2B
				{
					OFFSET 3.546783 -0.826963 0.000000
					CHANNELS 3 Yrotation Xrotation Zrotation
					JOINT LegL2C
					{
						OFFSET 4.852750 1.154237 -0.000001
						CHANNELS 3 Yrotation Xrotation Zrotation
						JOINT LegL2D
						{
							OFFSET 1.597293 2.641278 0.000000
							CHANNELS 3 Yrotation Xrotation Zrotation
							JOINT LegL2E
							{
								OFFSET 1.456213 1.970425 0.000000
								CHANNELS 3 Yrotation Xrotation Zrotation
								End Site
								{
									OFFSET 1.442703 -0.080150 0.000000
								}
							}
						}
					}
				}
			}
			JOINT LegR2A
			{
				OFFSET 0.007548 -1.372383 0.222229
				CHANNELS 3 Yrotation Xrotation Zrotation
				JOINT LegR2B
				{
					OFFSET -3.098261 -0.816307 -0.000001
					CHANNELS 3 Yrotation Xrotation Zrotation
					JOINT LegR2C
					{
						OFFSET -4.754818 1.178645 0.000000
						CHANNELS 3 Yrotation Xrotation Zrotation
						JOINT LegR2D
						{
							OFFSET -1.865813 2.423635 -0.000000
							CHANNELS 3 Yrotation Xrotation Zrotation
							JOINT LegR2E
							{
								OFFSET -1.500345 2.154342 0.000000
								CHANNELS 3 Yrotation Xrotation Zrotation
								End Site
								{
									OFFSET -1.442639 -0.134646 -0.000000
								}
							}
						}
					}
				}
			}
		}
		JOINT LegR3A
		{
			OFFSET -0.170525 -1.291478 -0.222229
			CHANNELS 3 Yrotation Xrotation Zrotation
			JOINT LegR3B
			{
				OFFSET -3.032154 -1.108673 0.000000
				CHANNELS 3 Yrotation Xrotation Zrotation
				JOINT LegR3C
				{
					OFFSET -4.180900 2.310848 0.000000
					CHANNELS 3 Yrotation Xrotation Zrotation
					JOINT LegR3D
					{
						OFFSET -1.175460 2.871864 0.000000
						CHANNELS 3 Yrotation Xrotation Zrotation
						JOINT LegR3E
						{
							OFFSET -1.001813 2.244061 -0.000000
							CHANNELS 3 Yrotation Xrotation Zrotation
							End Site
							{
								OFFSET -1.162103 0.440798 0.000000
							}
						}
					}
				}
			}
		}
		JOINT LegL3A
		{
			OFFSET -0.170525 -1.291478 -0.222229
			CHANNELS 3 Yrotation Xrotation Zrotation
			JOINT LegL3B
			{
				OFFSET 3.605357 -1.228765 0.000000
				CHANNELS 3 Yrotation Xrotation Zrotation
				JOINT LegL3C
				{
					OFFSET 4.167743 2.689717 0.000000
					CHANNELS 3 Yrotation Xrotation Zrotation
					JOINT LegL3D
					{
						OFFSET 1.024774 2.575782 0.000000
						CHANNELS 3 Yrotation Xrotation Zrotation
						JOINT LegL3E
						{
							OFFSET 0.692414 2.631176 0.000000
							CHANNELS 3 Yrotation Xrotation Zrotation
							End Site
							{
								OFFSET 1.384830 0.138483 0.000000
							}
						}
					}
				}
			}
		}
	}
	JOINT LegR4A
	{
		OFFSET 0.000000 0.080156 -1.935160
		CHANNELS 3 Yrotation Xrotation Zrotation
		JOINT LegR4B
		{
			OFFSET -3.312424 -0.975029 0.000001
			CHANNELS 3 Yrotation Xrotation Zrotation
			JOINT LegR4C
			{
				OFFSET -3.046576 3.406626 -0.000000
				CHANNELS 3 Yrotation Xrotation Zrotation
				JOINT LegR4D
				{
					OFFSET -0.166177 3.240449 0.000000
					CHANNELS 3 Yrotation Xrotation Zrotation
					JOINT LegR4E
					{
						OFFSET 0.055392 2.409564 0.000000
						CHANNELS 3 Yrotation Xrotation Zrotation
						End Site
						{
							OFFSET -1.107846 0.747796 0.000000
						}
					}
				}
			}
		}
	}
	JOINT LegL4A
	{
		OFFSET 0.000000 0.080156 -1.935160
		CHANNELS 3 Yrotation Xrotation Zrotation
		JOINT LegL4B
		{
			OFFSET 3.029229 -0.993715 0.000000
			CHANNELS 3 Yrotation Xrotation Zrotation
			JOINT LegL4C
			{
				OFFSET 3.157450 3.654308 0.000000
				CHANNELS 3 Yrotation Xrotation Zrotation
				JOINT LegL4D
				{
					OFFSET 0.192332 3.093340 0.000000
					CHANNELS 3 Yrotation Xrotation Zrotation
					JOINT LegL4E
					{
						OFFSET 0.000000 2.724704 0.000000
						CHANNELS 3 Yrotation Xrotation Zrotation
						End Site
						{
							OFFSET 0.993715 0.512885 0.000000
						}
					}
				}
			}
		}
	}
}
MOTION
Frames: 6
Frame Time: 0.041667
-0.030867 -4.437881 3.253119 -7.725666 -0.000000 0.000000 -0.000000 -0.000000 0.000000 -7.448115 -31.997544 9.211955 0.000002 -42.670210 -0.000001 0.000000 -12.388802 0.000000 1.188084 -38.211784 0.953008 -0.000003 44.660394 -0.000002 0.000001 -0.000001 0.000001 -0.000000 0.000000 -0.000001 0.000000 0.000000 0.000000 -0.000000 -0.000000 -0.000000 -0.000000 -0.000000 -0.000000 4.768266 -2.842367 -5.454505 -8.133674 8.774805 -1.602243 -0.000001 -0.000000 -0.000004 3.755476 21.002617 3.876113 -6.832086 -2.181649 6.809254 -6.931469 -2.206845 6.908323 -0.000000 -0.000000 -0.000000 -41.228002 -0.000006 0.000006 116.521566 -6.822241 -16.172071 -5.901964 12.969353 10.355786 -43.953452 45.617177 16.341018 7.423841 -0.000001 -0.000000 6.091289 -1.171827 2.855183 -10.007876 0.000000 0.000001 0.000000 0.000000 0.000003 0.344655 1.981036 19.736962 -0.000000 0.000000 -0.000001 -11.917829 0.000028 -0.000000 42.088981 -0.000773 -0.000292 55.384211 -0.000006 -0.000001 38.339710 -24.931758 20.776249 7.423844 0.000001 0.000003 3.375003 -1.467830 4.162932 -0.000000 -0.000000 -0.000001 0.000000 -0.000000 0.000002 0.000000 0.000000 -0.000004 7.423843 -0.000000 0.000004 4.734175 -2.359532 6.563431 0.000000 0.000000 -0.000000 0.000000 -0.000000 0.000002 -0.000000 -0.000000 0.000003 -0.000000 0.000000 -0.000001 -0.000000 0.000000 0.000000 -0.000000 -0.000000 -0.000000 -0.000000 0.000000 0.000000 27.320876 13.136662 14.803754 7.423838 -0.000000 0.000001 29.622476 0.000005 -0.000010 2.445215 -21.360503 -12.912287 0.000003 -0.000000 -0.000000 -36.306851 20.116697 -42.890603 -0.000000 -0.000000 0.000002 0.000000 0.000000 -0.000004 -0.000000 0.000000 0.000001 -0.000001 -0.000000 0.000000 32.087460 14.505191 17.758190 
-0.030867 -4.437881 3.253119 -7.725666 -0.000000 0.000000 -0.000000 -0.000000 0.000000 -7.514548 -31.709536 9.305797 -0.630676 -41.006096 0.193313 -0.671476 -9.769959 -0.380604 1.204977 -38.276701 0.966248 -0.000004 44.660387 -0.000002 0.000001 -0.000001 0.000001 -0.000000 0.000000 -0.000001 0.000000 0.000000 0.000000 -0.000000 -0.000000 -0.000000 -0.000000 -0.000000 -0.000000 6.510738 -3.428294 -6.980009 -8.133673 8.774805 -1.602243 -0.000001 -0.000000 -0.000006 2.625077 20.601953 5.017028 -6.832084 -2.181648 6.809256 -6.931468 -2.206846 6.908321 -0.685393 -0.000005 -0.000000 -41.228002 -0.000006 0.000006 116.521566 -6.822242 -16.172075 -5.901964 12.969352 10.355791 -44.407636 45.533866 16.089402 7.423841 -0.000001 -0.000000 9.348277 -1.525119 2.933605 -12.926316 0.673033 -0.147606 0.000000 -0.000000 0.000003 0.344655 1.981036 19.736964 -0.685392 -0.000005 -0.000001 -11.691826 0.000002 0.000003 42.682368 0.000001 0.000006 55.384211 -0.000005 -0.000002 38.848924 -25.358578 20.949874 7.423844 0.000001 0.000003 3.422678 -1.490676 4.222078 0.000000 0.000000 -0.000003 -0.000000 0.000000 0.000000 1.795327 1.643477 -0.876475 7.423843 -0.000000 0.000004 8.379917 -2.694860 6.711902 -3.206141 0.149359 -0.154273 0.000000 0.000000 -0.000002 0.000000 -0.000000 0.000000 -0.685389 -0.000007 -0.000001 -0.000001 -0.000000 0.000000 0.000001 -0.000000 -0.000000 0.566191 -3.900529 -0.185099 27.739557 13.267578 15.060017 10.616062 -0.000635 -0.000058 24.600055 0.349242 0.076142 2.519564 -21.660104 -13.115024 -0.000003 0.000000 -0.000001 -36.917596 20.183907 -43.582805 -0.685390 -0.000007 0.000002 0.316697 -2.194907 -0.099444 -0.000000 -0.000000 0.000000 0.000000 -0.000000 -0.000000 32.581525 14.632502 18.068210 
-0.030867 -4.437881 3.253119 -7.725666 -0.000000 0.000000 -0.000000 -0.000000 0.000000 -7.514548 -31.709536 9.305797 -2.637375 -35.291564 0.654054 -3.094085 -0.814659 -1.911621 1.204977 -38.276705 0.966250 -0.000006 44.660387 -0.000002 0.000001 -0.000001 0.000001 -0.000000 0.000000 -0.000001 0.000000 0.000000 0.000000 -0.000000 -0.000000 -0.000000 -0.000000 -0.000000 -0.000000 12.608215 -5.077763 -12.346357 -8.133674 8.774805 -1.602240 -0.000000 0.000000 0.000001 -1.291801 19.390065 8.968609 -6.832085 -2.181649 6.809256 -6.931471 -2.206845 6.908320 -3.032464 0.000004 -0.000000 -41.228002 -0.000007 0.000006 116.521566 -6.822243 -16.172075 -5.901964 12.969354 10.355794 -44.407643 45.533866 16.089400 7.423841 -0.000001 -0.000000 15.721361 -1.845906 2.868137 -24.333792 1.845894 -0.717685 -0.000000 0.000000 0.000001 0.344655 1.981036 19.736962 -3.032464 0.000006 -0.000001 -11.691824 0.000002 0.000001 42.682368 -0.000001 0.000007 55.384211 -0.000007 -0.000001 38.848924 -25.358580 20.949876 7.423844 0.000001 0.000003 3.422678 -1.490676 4.222078 0.000000 0.000000 -0.000003 -0.000000 0.000000 0.000000 7.801486 7.477788 -3.502458 7.423843 -0.000000 0.000004 13.578484 -2.627343 6.693436 -14.494280 -0.070598 -0.660841 -0.000000 0.000000 0.000002 0.000000 -0.000000 0.000002 -3.032467 0.000005 -0.000001 -0.000001 -0.000000 0.000000 0.000000 -0.000001 -0.000000 2.679252 -17.319217 -1.151846 27.739553 13.267578 15.060019 21.591555 0.000471 0.000092 5.266739 1.157592 0.053241 2.519566 -21.660101 -13.115026 -0.000001 -0.000001 0.000000 -36.917599 20.183904 -43.582805 -3.032468 0.000005 0.000002 1.442883 -9.721358 -0.537570 -0.000000 0.000000 -0.000001 -0.000000 0.000001 -0.000000 32.581522 14.632500 18.068210 
-0.030867 -4.437881 3.253119 -7.725666 -0.000000 0.000000 -0.000000 -0.000000 0.000000 -7.514548 -31.709536 9.305797 -3.837901 -31.586842 0.811057 -4.792973 4.936841 -3.105904 1.204977 -38.276708 0.966247 -0.000003 44.660391 -0.000002 0.000001 -0.000001 0.000001 -0.000000 0.000000 -0.000001 0.000000 0.000000 0.000000 -0.000000 -0.000000 -0.000000 -0.000000 -0.000000 -0.000000 16.632137 -5.835001 -15.906245 -8.133673 8.774805 -1.602245 -0.000000 -0.000000 0.000001 -3.856124 18.742881 11.555105 -6.832085 -2.181647 6.809259 -6.931468 -2.206845 6.908325 -4.552942 0.000001 -0.000000 -41.228002 -0.000007 0.000006 116.521566 -6.822241 -16.172073 -5.901965 12.969355 10.355794 -44.407639 45.533862 16.089400 7.423841 -0.000001 -0.000000 22.070959 -1.412601 2.882940 -36.332225 -0.613437 -0.293832 -0.000001 -0.000000 0.000001 0.344654 1.981036 19.736962 -4.552942 0.000003 -0.000001 -11.691825 0.000002 0.000002 42.682371 -0.000000 0.000007 55.384211 -0.000005 -0.000003 38.848921 -25.358577 20.949874 7.423844 0.000001 0.000003 3.422678 -1.490676 4.222078 0.000000 0.000000 -0.000003 -0.000000 0.000000 0.000000 11.591822 11.382669 -4.886373 7.423843 -0.000000 0.000004 16.361640 -2.492055 6.675671 -22.635092 -2.236310 -0.566805 -0.000000 0.000000 -0.000000 0.000000 0.000000 0.000000 -4.552942 0.000001 -0.000001 -0.000000 0.000000 0.000000 0.000000 0.000000 0.000003 4.281308 -25.958185 -2.113967 27.739555 13.267578 15.060016 28.685504 0.000068 0.000019 -8.328846 0.371782 -0.027072 2.519565 -21.660103 -13.115018 0.000001 -0.000001 0.000000 -36.917599 20.183907 -43.582802 -4.552944 0.000000 0.000004 2.220101 -14.586291 -0.908803 -0.000000 -0.000002 0.000000 0.000000 0.000000 0.000000 32.581525 14.632504 18.068214 
-0.030867 -4.438106 3.311920 -7.725666 -0.000000 0.000000 -0.000000 -0.000000 0.000000 -7.514548 -31.709536 9.305797 -3.172022 -31.626542 0.242247 -3.835882 4.725666 -3.738733 -2.611786 -37.678032 2.870306 -0.000005 44.660391 -0.000001 0.000001 -0.000001 0.000001 -0.000000 0.000000 -0.000001 0.000000 0.000000 0.000000 -0.000000 -0.000000 -0.000000 -0.000000 -0.000000 -0.000000 16.729042 -5.850060 -15.992120 -8.133673 8.774805 -1.602240 -0.000000 0.000000 0.000001 -3.917785 18.728729 11.617304 -6.832085 -2.181648 6.809256 -6.931471 -2.206844 6.908321 -4.589405 0.000000 -0.000000 -40.832838 0.005443 0.430355 116.673933 -7.171587 -17.162343 -5.901964 12.969354 10.355791 -44.407636 45.533869 16.089399 7.423841 -0.000001 -0.000000 27.302979 0.693068 2.708952 -46.706418 -7.106579 4.530265 -0.000000 -0.000001 0.000001 -0.441467 6.094841 16.773630 -4.589404 0.000002 -0.000001 -11.691825 0.000002 0.000002 43.002215 -1.348321 -0.536540 54.971668 0.031579 -2.581499 38.848921 -25.358578 20.949876 7.423844 0.000001 0.000003 3.579218 -1.471806 4.217616 0.781580 -2.096969 -0.236100 0.000000 -0.000000 0.000002 11.681924 11.477156 -4.916443 7.423843 -0.000000 0.000004 16.424233 -2.488153 6.675259 -23.541680 -5.773944 0.384768 0.000001 0.000000 0.000002 0.000001 0.000000 0.000000 -4.589405 0.000000 -0.000001 0.000000 0.000000 0.000000 0.000000 0.000000 0.000001 4.322956 -26.164086 -2.141035 27.739555 13.267575 15.060016 28.855097 -0.000000 0.000001 -10.342185 -1.820260 0.176615 2.519566 -21.660104 -13.115026 -0.000000 -0.000001 -0.000000 -36.917596 20.183904 -43.582802 -4.589406 -0.000000 0.000004 2.239329 -14.702706 -0.918621 -0.000000 0.000001 0.000001 -0.000000 0.000000 -0.000000 32.581522 14.632504 18.068214 
-0.030867 -4.438260 3.538171 -7.725666 -0.000000 0.000000 -0.000000 -0.000000 0.000000 -7.514548 -31.709536 9.305797 -0.424513 -32.042668 -1.943496 0.091392 3.557927 -6.028639 -16.130393 -34.522658 9.214357 -0.000003 44.660391 -0.000004 0.000001 -0.000001 0.000001 -0.000000 0.000000 -0.000001 0.000000 0.000000 0.000000 -0.000000 -0.000000 -0.000000 -0.000000 -0.000000 -0.000000 16.729042 -5.850060 -15.992120 -8.133673 8.774805 -1.602240 -0.000000 0.000000 0.000001 -3.917785 18.728729 11.617304 -6.832085 -2.181648 6.809256 -6.931471 -2.206844 6.908321 -4.589405 0.000000 -0.000000 -39.087810 -0.550038 2.190281 117.282613 -8.424045 -20.794188 -5.901964 12.969353 10.355793 -44.407639 45.533862 16.089400 7.423841 -0.000001 -0.000000 33.174307 5.692420 1.842690 -62.348412 -14.114842 18.100006 -0.000001 0.000001 0.000006 -5.634675 21.228177 4.381819 -4.589404 0.000002 -0.000001 -11.691825 0.000002 0.000002 44.477352 -6.611875 -2.778622 53.448822 -0.015507 -12.096122 38.848924 -25.358578 20.949876 7.423844 0.000001 0.000003 4.275812 -1.375795 4.174857 3.331489 -10.249707 -1.333233 -0.000000 -0.000000 -0.000001 11.681922 11.477156 -4.916448 7.423843 -0.000000 0.000004 16.424233 -2.488153 6.675259 -22.233536 -9.651573 1.838370 0.000001 -0.000000 0.000000 -0.000000 0.000000 0.000002 -4.589405 0.000000 -0.000001 0.000000 0.000000 0.000000 0.000000 0.000000 0.000001 4.322956 -26.164086 -2.141035 27.739555 13.267575 15.060016 28.855097 -0.000000 0.000001 -11.103023 -3.698321 0.414781 2.519566 -21.660101 -13.115024 -0.000001 0.000001 0.000001 -36.917599 20.183902 -43.582805 -4.589406 -0.000000 0.000004 2.239329 -14.702706 -0.918621 -0.000000 0.000001 0.000001 -0.000000 0.000000 -0.000000 32.581522 14.632504 18.068214 
